<svg xmlns="http://www.w3.org/2000/svg" viewBox="248.3917895799451 101.40205260501378 100 99.97892270488833" class="ta-logo">
<g class="ringA" fill="#5d7eac"><path d="M298.68095310263186,104.42215620079892C288.58452265007895,105.4652302368065 279.2154366332443,109.67468699530389 272.32688944342533,116.2626943250535C269.8091900019425,118.6706750179822 267.8282851300238,121.33850876681919 266.08105813666975,124.6746910853409C265.17238617707403,126.40984766012713 263.3740294331577,130.70867976509817 263.4551317961186,130.95212247666151C263.4798151239763,131.02630808291508 263.7509248623691,130.6662298660902 264.05743212038203,130.1518130388146C264.3638037557144,129.63739621153897 265.2526748039518,128.36077991964723 266.03236959435714,127.31485780734837C272.00112376477625,119.30972908867102 281.33820282900433,113.5943180854944 291.492951034188,111.72991309615668C295.9708050774675,110.90776840674334 301.6883860435327,110.90844652014604 306.4792572334908,111.73154056832313C313.39492895941703,112.91973087250496 321.2214426078276,116.36997186535802 327.3762710959431,120.94384676645745C336.5000156836869,127.72403143452753 342.7906024750196,137.48832194244613 344.9821293698118,148.27141002655623C346.90485211178026,157.7320413527532 345.44609455992776,168.29487820367177 341.0222183435019,176.94692710850907C340.6765161308139,177.6230061709844 340.31575980058636,178.35930170361803 340.2206883015301,178.58307912650355L340.04763376116534,178.9899471681136L340.3930647284923,178.58307912650355C341.23107727152836,177.59615288023815 343.4150092962105,173.58077217758876 344.5239959549589,170.98820901644962C346.2926513318377,166.85320910956688 347.449377174135,162.49158370350736 348.13874725930293,157.35812962251362C348.4413214595803,155.10489440807726 348.4818726410607,148.94898093851748 348.2107629026679,146.4405038393111C347.299514112142,138.0114186212761 344.4552352559268,130.2342716285809 339.80364855887984,123.45245948834436C336.50747493111646,118.6469410488883 331.45553008112523,113.93771471261326 326.433150975491,110.98887076970428C320.57750612063944,107.55083581809953 313.505597066735,105.2144639004942 306.8861252751009,104.53106121326988C305.18121255807426,104.35502297393327 299.9966287265182,104.28612665222064 298.68095310263186,104.42215620079892"></path><path d="M260.1354954446224,119.27555217317578C256.4244520370973,123.69576657722715 253.50680131071178,128.66593095085477 251.51369039754476,133.96321722993682C249.8730628310926,138.323486409191 248.92885772919624,142.4923919862079 248.48808401745205,147.3220512627995C248.29427920696514,149.44698742144817 248.40521855964414,154.64703223858544 248.69368800114566,156.95126158090358C249.33640388420895,162.08580064334163 250.75054157416488,166.618717494919 253.30363853526782,171.7287088521799C255.5906437971578,176.3062455656538 258.1254316963883,179.84898122663287 261.47354881079724,183.1474604399654C265.59729203519544,187.21030908080263 269.62311568424616,190.04183940504737 274.81136132817676,192.52848125268736C279.7276834976313,194.88492532701213 284.26995831416565,196.16140599622332 289.65051691909724,196.69860743382907C291.67807599312056,196.9009564731898 297.0026224309905,196.78716904421952 298.8843871234369,196.50127643364823C307.19819306301576,195.23795116444907 314.4751636098917,192.02016744603588 320.50386300510803,186.94150492797894C322.6259510874654,185.15386237582499 326.7377595159764,181.02971228338518 326.5675530519029,180.8596414419922C326.5336473817687,180.82573577185804 325.9299908306999,181.2564734052425 325.22597349603404,181.8170019439006C322.3548413490726,184.1026509789852 320.0999786624698,185.56574845661487 317.1934489958883,187.02884593424454C304.7416594504549,193.29664811524708 291.59019249613283,193.33652118332486 279.76158916776546,187.14263336321483C274.7904754353741,184.53949163299387 271.5348529890912,182.15999170297786 267.68425384329385,178.3156312004852C264.8439080448142,175.47989657314383 263.54654148280036,173.91793016140292 261.59777918616885,170.98820901644962C257.17797165015907,164.34324016087461 254.7722965427995,157.9006203446603 253.69762242222689,149.83107085272803C253.36629621367578,147.34320840096322 253.3664318363563,140.7640165454485 253.69789366758795,138.39102650409825C254.6768181757017,131.38272448736546 256.98375997163055,124.76148960088437 260.1855402137404,119.77003246641252C260.5651480965626,119.17817508855045 260.84493768650975,118.66321577055268 260.8072345813206,118.62551266536349C260.76953147613136,118.58780956017429 260.46722852121513,118.88034768209191 260.1354954446224,119.27555217317578"></path></g>
<g class="ringB" fill="#6f8cb8"><path d="M293.73072526304315,101.55563522497572C290.8369441284321,101.878417204653 289.2346977805718,102.13976211004719 287.01740257647765,102.65051712494831C276.4594481420584,105.08236740965147 267.64071896284156,110.7592615715557 262.1817704485598,118.63785432929234C258.3897603007543,124.11063635698886 255.81306499323796,131.08421896750423 254.78436696136728,138.65793193939442C254.48219962913154,140.8830932589597 254.44422527858129,146.58467074872158 254.7164199984184,148.88171208897128C255.39548275986553,154.61394030453448 256.7270262373746,159.01042073949193 259.4606369862719,164.54613169095748C260.6547946883973,166.96428408492642 260.9946651258222,167.32273482958487 260.36049347163276,165.49535483203368C258.8789513094501,161.22581722605855 258.185241298505,157.4765282226221 258.0393112942475,152.9503925050716C257.8479476920103,147.01052596560675 258.77235188254826,141.94800254653367 261.3014436291962,135.0850880433362C261.77856421932427,133.790162689572 262.38954439514197,131.98610979307315 262.6591622840489,131.07594598399152C264.42510520731696,125.11370170223812 267.26911281817104,120.10515611001864 271.21383410426085,116.01097862997743C275.8730156714179,111.17521633276168 282.36513776602806,107.21286409820212 289.1969946753826,105.03530633950524C291.0584159657485,104.44209273483781 294.9529568600397,103.57370071136147 296.9856695959234,103.2986579152331C299.176789622674,103.00218673557991 304.7971291267944,102.95946559121086 307.0217479556375,103.22230234609094C310.54725953618845,103.63893522069961 314.12349399926006,104.4264961265761 317.22735466602245,105.46984140794476C318.2157727617738,105.80198135257908 319.0243551831334,106.04854338579476 319.0243551831334,106.01775703731293C319.0243551831334,105.91468380010505 317.7037971427478,105.29095509231688 316.3569283023381,104.75809358048826C312.3304265398847,103.16506957490446 308.9123281223188,102.2877264545127 304.309294344904,101.66603208693257C302.12685416970777,101.37132400212639 295.95968401766345,101.30690322887145 293.73072526304315,101.55563522497572"></path><path d="M325.81064287182767,121.77168760845333C328.8643231467915,124.93888406702634 331.9203090073244,129.1841452131854 334.05867181134624,133.22936290555288C337.60113622696423,139.93061517355062 339.2096212181292,147.43733054125568 338.6999511846724,154.8897968367461C338.09737961504794,163.70255861801934 334.8565400409435,172.335484724901 329.52453435564405,179.33198756842708C324.6696492604726,185.70204925055424 319.28651382461084,190.3026418197194 312.9635132126299,193.48543488655412C301.3397001318729,199.33633294758693 288.74821922548676,199.70685411081314 276.51790151736975,194.5576677988771C271.6284326386615,192.4990511310109 268.32222293253835,190.44477438892184 263.3888123053362,186.39982794191545C263.1738503566856,186.22351845721778 262.95956652143764,186.11746152103808 262.91291231933303,186.16425134582323C262.77728963879633,186.29987402635993 266.4651415679497,189.85942689972555 268.0996661137777,191.1708982205152C276.83675043931146,198.18055646405335 289.081851019607,201.98138208609373 300.7615406447451,201.30869359063183C309.57769299303175,200.80105789738303 318.3023000319562,197.9136510287572 325.60205518916223,193.087382319179C332.9834552000515,188.20727140542775 338.20208032442224,181.74539316857724 341.455125939775,173.4574911609809C343.52174434579285,168.19194058914442 344.45726959613484,163.0434323906111 344.44180861055366,157.01907292117193C344.433806872402,153.8445528378499 344.31486578157137,152.40844427364704 343.83015032133324,149.627636831923C342.46944796750876,141.8216022082735 338.72883881562666,134.1294906362748 333.4125653612695,128.20494945971058C331.3199074005886,125.87291746788243 328.4118858845211,123.19274205511661 326.1728910515411,121.5327204453477C324.4846599242206,120.28078748131364 324.4165773385912,120.32567858857126 325.81064287182767,121.77168760845333"></path></g>
<g class="topBody" fill="#52cfc8"><path d="M303.42381386368004,125.56139217068969C300.5917410487132,128.42804876919342 296.41076505312844,128.47226176304838 293.5346148669871,125.66595725738347C293.0485431799437,125.19168474354672 292.58878229292435,124.82780909166681 292.5126979691433,124.85723921334326C292.3799233648979,124.9087758319472 291.51532877647657,126.30067140229511 290.0996992370347,128.74174402927477C286.9528461805422,134.16854996826936 284.4936001143707,140.65728149586613 283.4433380762946,146.30488115877444C283.1600222966535,147.8281951065624 283.0184322181732,149.627636831923 283.1818575482199,149.627636831923C283.2546869276681,149.627636831923 283.66779361258284,148.94111482304635 284.0998874727727,148.1018816758854C287.7671247544844,140.9796566075018 292.0408666635562,136.24954437842413 296.01339059915597,134.91596656070698C299.2958663361852,133.81403228134647 302.14394262745543,134.7068363873194 305.42465526963764,137.8661667304213C308.56526968282543,140.89068812906976 310.7775468477397,144.14576808463053 312.7200705010665,148.6007018948993C313.1733214994201,149.64024974121293 313.62630125241265,150.51813535232685 313.7267976586903,150.5516341544194C313.87571136191957,150.60127205549583 313.8955122732779,150.3157863129661 313.83421082167536,149.0011956705241C313.6657674524488,145.39281863216527 312.4074602224295,140.61483159685815 310.36688137107467,135.8345389759819C309.275525660796,133.27818707054607 307.2186720877768,129.22876507508198 305.9029964638905,127.04646052256629C304.5797259698941,124.85154306076072 304.4648535594796,124.67306361317446 304.37452885424216,124.67306361317446C304.33424891812274,124.67306361317446 303.90649498371005,125.07287927539657 303.42381386368004,125.56139217068969"></path><path d="M304.88352077429624,126.6056868108221C305.1753807828112,127.0719575865072 305.6643005461459,127.91105511098762 305.96985844539506,128.4704986682014C306.27528072196367,129.0299422254152 306.7469764048702,129.88436511279627 307.0179505205825,130.3692161957149C308.03796870089883,132.19442623037747 309.6421137662867,135.69823818204253 310.6883071239466,138.3860084649184C311.67414838876766,140.91876202394084 312.1386560696058,142.50581863158104 312.7240035588021,145.34033265479758C313.19719109119455,147.63167784246474 313.1548768148671,148.00287711909363 312.5753611009339,146.64393786011613C312.43214355028715,146.30827172578785 312.02419052723286,145.53617180549253 311.6688591042267,144.9281753286466C311.3133920585401,144.32017885180068 311.0226170314695,143.7810786966674 311.0226170314695,143.73022019146617C311.0226170314695,143.67936168626488 310.5023684289308,142.91336478659375 309.8665693025749,142.0282911734114C306.1648838600068,136.8747649356982 302.94506580138557,134.32058299315096 299.62461571380607,133.9036788731812C296.4160543376694,133.50074388930676 293.1258481078496,134.9995101319176 289.9680096142336,138.3024648937078C288.30120687043785,140.0458944520068 287.14814284051505,141.55700235854644 285.6807054371082,143.92144817102286C284.98292674574697,145.04589581535245 284.36530105858293,145.96582445743275 284.308203910077,145.96582445743275C284.0707285964573,145.96582445743275 285.13767222423934,141.79691888041583 286.0434961075438,139.1846904305989C286.7076403741319,137.27010504946261 287.95048661857004,134.37523893340725 289.02556760718426,132.23931733763513C290.1702230309138,129.96519623039612 291.9190774964342,126.85550378837065 292.4416316845421,126.16491309907789L292.69822979611746,125.8258563977362L293.14673400065226,126.24886353833011C295.6290359225151,128.59038911779584 299.40558508473936,129.03170532026218 302.2749541368538,127.31553592075107C302.72250898262484,127.04795237205221 303.33186168627617,126.5879202396718 303.62914660201255,126.29348340022666C303.92643151774894,125.99904656078155 304.21083227883435,125.75804505746787 304.261283915994,125.75804505746787C304.3115999304731,125.75804505746787 304.59166076578134,126.13955165781755 304.88352077429624,126.6056868108221"></path></g>
<g class="leftBody" fill="#34bd87"><path d="M283.65355323112647,139.2864074410014C282.26342075562553,141.36374003878169 277.41002750994,149.5130356668695 275.1258703243413,153.6047719386611C273.3797283124316,156.732773442559 271.4207943147598,160.52396985428123 271.4207943147598,160.7752786813157C271.4207943147598,160.92107306289262 271.67345936859965,161.0345892465018 272.26843606811406,161.15624279094322C273.2535992195325,161.3576424715402 274.7793543755701,162.03033096700213 275.5572860711285,162.60618486856083C276.2165479212173,163.0941552731318 277.15098819011496,164.28248119999418 277.57765714308334,165.17569217400873C278.36915110669537,166.83191634872264 278.40549798507925,168.85296553408017 277.67747543595834,170.71696365537628C277.44447567079635,171.31370344973766 277.2535189366007,171.87830066881185 277.2532476912396,171.97147345034054C277.2527052005175,172.1060111494329 280.05968781958506,172.14018806492817 290.8487433016388,172.13679749791476C303.6824463154635,172.1328644401792 306.2666008704093,172.06885053496586 306.5884334913228,171.74701791405232C306.7971567966688,171.5382946087064 306.3030833714737,171.37066497556307 303.3484076533016,170.64711797489988C297.0077760928509,169.09450952811602 292.6967379466316,167.54976719680326 289.0379092711131,165.5194956691692C286.4241889718102,164.0692823461905 284.1206377428948,162.02856787215512 283.2675710823191,160.40746997170027C282.11125210806335,158.21051816968662 281.72893177163047,154.5496551539601 282.198593114329,150.17012755406972C282.49859048367614,147.37318101336183 282.854871265446,145.73580839124253 284.4394866648365,139.87202617555877C284.7348728630454,138.77877174775261 284.7885794445379,138.09970898630547 284.57972051651143,138.09970898630547C284.5070267597438,138.09970898630547 284.09025826245454,138.6337911022589 283.65355323112647,139.2864074410014"></path><path d="M282.9005761087868,143.27805417455687C281.7445283798922,147.6758908363197 281.42066141877064,149.8983397022742 281.4023523568982,153.56069456748665C281.3881119754418,156.38802058863473 281.51736038999326,157.46784837106776 282.08711127092783,159.28600602634248C282.91685083045127,161.9333607504184 285.4059338863409,164.34391827427729 289.5942335066745,166.55605981651104C292.70813025179666,168.20075606337932 298.3493556487197,170.17026863013294 302.5185324710977,171.06822639796627C302.9507619539681,171.161399179495 303.3357947440117,171.28820638579674 303.3741759626036,171.35018595080203C303.41242155851495,171.41216551580726 297.7322724522778,171.462888398328 290.751501839694,171.462888398328L278.05938890434965,171.462888398328L278.26702722825127,171.0613096412589C278.55427606562796,170.50566351910015 278.88004174427704,168.8803613155486 278.88004174427704,168.00234008175414C278.88004174427704,166.17116264914793 278.02277078060473,164.11742839778105 276.7106213464124,162.8052789635887C275.6095008031351,161.7041584203114 274.4992935402619,161.08192156200914 272.82503154903657,160.62758558221128L272.262604292851,160.47501006660752L272.9418026769787,159.0860981952314C273.3153075391767,158.3221356357683 273.849118409769,157.3004899832855 274.128094263633,156.81563890036688C274.40693449481637,156.33078781744825 274.8490644333659,155.5373951363087 275.11054496144067,155.05254405339008C275.94109825704726,153.51241289321558 276.3760401935284,152.74912844715516 278.1634115003213,149.69544817219133C281.3038902908286,144.33007930747988 283.41214485977116,140.82355490220408 283.46558019590265,140.87699023833554C283.494467826857,140.90587786928984 283.2401753008507,141.98638376512557 282.9005761087868,143.27805417455687"></path><path d="M284.30494896574413,146.29687942062276C284.30494896574413,146.32983573199317 284.24391875950266,146.39439212792865 284.16932628520743,146.4405038393111C284.09473381091226,146.48661555069356 284.0337036046708,146.45962663726678 284.0337036046708,146.38069423719443C284.0337036046708,146.3017618371221 284.09473381091226,146.2370698185061 284.16932628520743,146.2370698185061C284.24391875950266,146.2370698185061 284.30494896574413,146.26392310925235 284.30494896574413,146.29687942062276"></path></g>
<g class="rightBody" fill="#ddd1bb"><path d="M312.51446651737297,139.32804360392615C312.51446651737297,139.40684038131798 312.78503376504364,140.49019435344493 313.11581748287256,141.73534618345218C315.16507618578174,149.44997112041997 315.53668233045227,155.14259751326642 314.24840248803434,159.0856913271898C313.85157052478405,160.3000568087152 312.764419117602,161.87707733799567 311.7625743764776,162.69135591193788C308.7749423469352,165.11981562962762 302.99605992926735,166.4505453710535 297.1686245919674,166.0519503129562C295.9491054485816,165.96854236442616 294.2799971192167,165.8104063189204 293.4594799019698,165.70055194768565C291.5014952630618,165.43839330620827 291.27595474532933,165.43744394744454 291.487390504286,165.6921433414924C291.78155609837006,166.04666102841526 293.0359302706538,166.6762215114665 294.95933112602495,167.43503040906924C299.9597393574122,169.4076622974752 304.7175186133194,170.43771655615126 314.17014820136467,171.59430677576805C318.8281091643969,172.16419327938317 319.7675674724744,172.23227586501258 319.67073287857124,171.99290183386535C319.62828297956327,171.8877942564494 319.3969106865677,171.315059676543 319.15645167397616,170.71981173166756C318.3935740959573,168.83167277323594 318.4503999991022,166.8229652518072 319.3156727009262,165.09133486671493C319.7832997034167,164.1554027483313 320.8265093621048,162.9558201389844 321.68825587423487,162.3630134023586C322.4533034151423,161.83652615651522 323.8477758164204,161.31641317665705 324.79130280491404,161.20547382397805C325.4322555931303,161.13020323628018 325.52922580971403,161.0821928073702 325.4627706962511,160.87292701130212C325.18718540940057,160.00439936514522 318.95261078512954,148.80196595281572 316.67591284696033,145.08427703394432C313.8314983680646,140.43960709360476 312.51446651737297,138.61792324863612 312.51446651737297,139.32804360392615"></path><path d="M314.6918886533893,143.04993682589418C316.7567439645602,146.34692418974078 320.0426102686028,152.0185290671041 322.50999369560657,156.54439353929354C324.65418827489145,160.47731565217663 324.6574432192243,160.48409678620345 324.4399044396435,160.6217538069482C324.33316939006113,160.68929390185548 324.14858692185067,160.74544169159765 324.0297814537006,160.74666229572247C323.58738026978995,160.7508665988191 322.2753664582781,161.28535558281413 321.51777816480023,161.7699354203717C319.9449619386164,162.77612008727328 318.78647300147213,164.32031992786392 318.27476862780725,166.09277273979774C317.92296339449507,167.31120690173924 317.9734150316547,169.1455036559978 318.3930316052352,170.3949954117822C318.57774969612615,170.94508100403897 318.7015732034561,171.42274408488913 318.66821002404413,171.45651413234276C318.52512809607794,171.60149477783648 309.20947741537464,170.3958091478654 305.5977098100024,169.76475681532827C302.2140595532929,169.17371317354943 297.3823659364932,167.82372501148734 294.9513293878733,166.79014456311734L294.1375933046532,166.44417110506828L295.62944279055665,166.54615936083184C297.93462149163855,166.70388853829598 302.0061499840301,166.65899743103836 303.3599355811472,166.46098831745482C307.72359532741484,165.82274798284922 310.73957249718944,164.5625420353024 312.7980535423751,162.51735201280934C314.42240638716294,160.90357773710343 315.1611431280462,159.10115231277098 315.509829039706,155.90140641086916C315.85186944001947,152.7629619605699 315.28076233227955,147.6977260878861 314.0711436445729,143.13958341772891C313.749717891701,141.92793038981426 313.67187047307294,141.5142812141774 313.78877722369555,141.6371553627436C313.81834296805255,141.66834857926705 314.22466851894046,142.30401208294245 314.6918886533893,143.04993682589418"></path></g>
<g class="topHeadOutline" fill="#16233f"><path d="M299.67059180250806,115.65266350799953C300.5963522198514,115.89380063399375 302.0001825860865,116.75378405127681 302.49601910612864,117.38361577968914C302.6921295021847,117.63275464383501 303.0277956365129,118.16941359071865 303.2419438490803,118.57628163232867C303.60215768858575,119.26076930099728 303.63118094222057,119.42744957537687 303.63118094222057,120.80781721787916C303.63118094222057,122.18031874491032 303.6001233483777,122.36083253270465 303.2433000758857,123.06484986737054C302.6405928835807,124.25426077567718 301.7863056188802,125.13879189813741 300.74594403648337,125.65049627180228C299.8858249965197,126.07363903507672 299.759289035579,126.09710175880956 298.3440663641788,126.09710175880956C296.9029397607961,126.09710175880956 296.82007430298813,126.08082703714516 296.0021339166714,125.63734087179023C291.86808336855245,123.39549796251896 292.3418133916671,117.43216869932127 296.7822355751184,115.8178519328932C297.8875604214923,115.4158663077825 298.6043262881287,115.3749082582604 299.67059180250806,115.65266350799953"></path></g>
<g class="leftHeadOutline" fill="#16233f"><path d="M273.3863738237779,163.18787054538265C274.982517151014,163.81119238512923 276.43937598533904,165.746121168346 276.63616449479775,167.50419797614296C276.88543898162413,169.7316648812773 275.61451884231496,171.9351265719567 273.47235860323815,172.98972853580992C272.65184138599125,173.39374850112867 272.47444691984924,173.42914602074876 271.2880197105144,173.4253485856937C270.10457620015137,173.4215511506387 269.9267748659678,173.3849330268938 269.1582011353664,172.98715170487972C265.8948481962929,171.29810684147594 265.0202175295119,167.29533904811643 267.33895849864746,164.66100410137204C267.9767919652114,163.9365077419451 269.00169256202713,163.24198399491678 269.827770309176,162.9745360688985C270.6847700274873,162.69718768720094 272.39185270740245,162.79944718832562 273.3863738237779,163.18787054538265"></path></g>
<g class="rightHeadOutline" fill="#16233f"><path d="M327.2295273556024,163.01020483387958C328.55157724547394,163.46616828584393 329.77679254144226,164.65354485394255 330.43619001421155,166.11759169033596C330.8737087816229,167.08892132833964 330.87208130945646,169.04649909920602 330.4330706925592,170.14965398269135C330.01738717671435,171.19421986818486 328.75663873844536,172.546242370455 327.7265844797693,173.05211496885676C327.034095072949,173.39212102896224 326.81750565213196,173.4294172661098 325.53139577260265,173.4294172661098C324.1964617280801,173.4294172661098 324.04700553412874,173.40107212587765 323.2115698220228,172.98986415849043C321.0795812839862,171.9402802338171 319.8014731426086,169.45797831195432 320.2414331182696,167.22169593258502C320.89106575804027,163.91955490687803 324.15767364144665,161.95085607620763 327.2295273556024,163.01020483387958"></path></g>
<g class="topHead" fill="#2fc6bf"><path d="M296.7726063648003,115.09362681882735C295.8865833928542,115.33259398193297 294.92067866207196,115.93475868351582 294.1375933046532,116.73615310280704C292.5546053774291,118.35643726717873 292.06663497285814,120.70325213118538 292.8433460642917,122.9608272713989C293.35667791012304,124.45294800266342 294.38727465952127,125.56830892739706 295.96849949189834,126.34325692398363C296.8039352040043,126.75270179652387 296.9315561463893,126.77521516149295 298.4097077415585,126.77521516149295C299.8832481655895,126.77521516149295 300.0199558275705,126.75120994703795 300.8860422654777,126.34108696109504C302.5665429000077,125.54498182634475 303.8356999444699,123.99725579606019 304.24297485412154,122.24731634909546C304.4594286522581,121.31762287401654 304.35093050782876,119.51696054453107 304.0297760003179,118.70566566956066C303.35803686361976,117.00916155872737 301.9691249922436,115.68127989359277 300.33961848559545,115.17798412612116C299.33940121663744,114.86917128253916 297.7452922296094,114.83146817734996 296.7726063648003,115.09362681882735"></path></g>
<g class="leftHead" fill="#23a877"><path d="M269.8273634411344,162.31446048272645C267.40215866777754,162.96748368951057 265.72016618376165,164.9519147511232 265.3981979401676,167.53986674112406C265.2806130761423,168.48529244714524 265.56731942279686,169.94093067734542 266.0643765469638,170.92161828030612C266.8432576012859,172.4587657415088 268.4833426770159,173.66919816529867 270.29716040651346,174.045822349149C273.1274701266334,174.6333398012339 276.1330043500067,172.7945674985176 276.9981414291501,169.9460843392058C277.4248103821185,168.54157585956798 277.32770454285424,166.8392399734716 276.7506300371707,165.6067010527543C275.5083262834547,162.95378579877635 272.59610046429066,161.56894260781633 269.8273634411344,162.31446048272645"></path></g>
<g class="rightHead" fill="#cdbfa4"><path d="M324.0423943629905,162.28069043527285C321.15173255003174,163.10866689994924 319.4100660865797,165.55109575373424 319.6003447073727,168.51011139768346C319.6825320517779,169.78727018029736 319.9361464643815,170.5241082036531 320.6697295434044,171.61641327269552C321.2758273027228,172.5189822116671 321.97157165387597,173.10012539776676 323.0212912012298,173.58077217758876C326.656792775696,175.24499809045432 330.68749884124605,173.04424885338565 331.3654766212489,169.02466384763963C331.79051810205084,166.50520131130978 330.39916502242505,163.86639081610764 328.02766683056075,162.6943396109097C327.1694465081246,162.27011186619097 326.8887075594137,162.20094429911725 325.8476678636142,162.15659568258178C325.1233071268678,162.12594495678047 324.4123730354945,162.1747691217737 324.0423943629905,162.28069043527285"></path></g>
</svg>